<svg width="10" height="11" viewBox="0 0 10 11" fill="none" xmlns="http://www.w3.org/2000/svg">
<path d="M5.23448 1.65838C5.47974 1.41089 5.77147 1.21428 6.09292 1.07984C6.41437 0.945409 6.75921 0.875798 7.10764 0.875007C7.45607 0.874216 7.80122 0.94226 8.12328 1.07523C8.44534 1.20821 8.73796 1.40349 8.98434 1.64987C9.23072 1.89624 9.426 2.18886 9.55897 2.51092C9.69194 2.83298 9.75999 3.17813 9.7592 3.52656C9.75841 3.87499 9.6888 4.21983 9.55436 4.54129C9.41993 4.86274 9.22332 5.15447 8.97583 5.39972L4.78345 9.5921C4.48115 9.88422 4.0762 10.0459 3.65584 10.0423C3.23547 10.0387 2.83336 9.87006 2.53613 9.57279C2.2389 9.27551 2.07035 8.87337 2.0668 8.45301C2.06324 8.03265 2.22497 7.62772 2.51714 7.32546L6.24078 3.60182C6.3026 3.54211 6.3854 3.50907 6.47135 3.50982C6.55729 3.51057 6.6395 3.54504 6.70028 3.60581C6.76105 3.66659 6.79553 3.7488 6.79627 3.83474C6.79702 3.92069 6.76398 4.00349 6.70427 4.06531L2.98063 7.78895C2.8097 7.96791 2.71559 8.20666 2.71843 8.45411C2.72127 8.70157 2.82084 8.93809 2.99583 9.11308C3.17082 9.28807 3.40734 9.38764 3.6548 9.39048C3.90225 9.39332 4.141 9.29921 4.31996 9.12828L8.51234 4.93591C8.69913 4.75156 8.84762 4.53208 8.94925 4.29012C9.05088 4.04815 9.10364 3.78847 9.1045 3.52603C9.10536 3.26358 9.0543 3.00356 8.95426 2.76093C8.85421 2.51831 8.70716 2.29786 8.52158 2.1123C8.33599 1.92673 8.11553 1.77971 7.87289 1.6797C7.63025 1.57968 7.37023 1.52865 7.10778 1.52954C6.84534 1.53043 6.58567 1.58322 6.34371 1.68488C6.10175 1.78654 5.88229 1.93505 5.69797 2.12187L1.13192 6.68792C1.10168 6.71923 1.06551 6.7442 1.02552 6.76138C0.985528 6.77856 0.942516 6.7876 0.898993 6.78798C0.85547 6.78836 0.812307 6.78006 0.772024 6.76358C0.73174 6.7471 0.695142 6.72276 0.664366 6.69198C0.633589 6.66121 0.60925 6.62461 0.592768 6.58433C0.576287 6.54404 0.567994 6.50088 0.568372 6.45736C0.56875 6.41383 0.577792 6.37082 0.594971 6.33083C0.61215 6.29084 0.637122 6.25467 0.668428 6.22443L5.23448 1.65838Z" fill="#1E1E1E"/>
</svg>
