<svg width="9" height="9" viewBox="0 0 9 9" fill="none" xmlns="http://www.w3.org/2000/svg">
<path d="M4.55929 6.87681H5.07358V4.81967H7.13072V4.30538H5.07358V2.24824H4.55929V4.30538H2.50215V4.81967H4.55929V6.87681ZM1.53323 8.67681C1.29632 8.67681 1.09866 8.59761 0.940263 8.43921C0.781863 8.28081 0.702491 8.08298 0.702148 7.84573V1.27933C0.702148 1.04241 0.78152 0.844756 0.940263 0.686356C1.09901 0.527956 1.29666 0.448585 1.53323 0.448242H8.10015C8.33672 0.448242 8.53438 0.527614 8.69312 0.686356C8.85186 0.845099 8.93106 1.04276 8.93072 1.27933V7.84624C8.93072 8.08281 8.85152 8.28047 8.69312 8.43921C8.53472 8.59796 8.33689 8.67716 8.09963 8.67681H1.53323ZM1.53323 8.16253H8.10015C8.17901 8.16253 8.25152 8.12961 8.31769 8.06379C8.38386 7.99796 8.41678 7.92527 8.41643 7.84573V1.27933C8.41643 1.20013 8.38352 1.12744 8.31769 1.06127C8.25186 0.995099 8.17918 0.962185 8.09963 0.962528H1.53323C1.45403 0.962528 1.38135 0.995442 1.31518 1.06127C1.24901 1.1271 1.21609 1.19979 1.21643 1.27933V7.84624C1.21643 7.9251 1.24935 7.99761 1.31518 8.06379C1.38101 8.12996 1.45352 8.16287 1.53272 8.16253" fill="#696969"/>
</svg>
