<svg width="13" height="10" viewBox="0 0 13 10" fill="none" xmlns="http://www.w3.org/2000/svg">
<path d="M11.7841 0.526609L1.33023 0.52661C1.22439 0.526942 1.12064 0.556133 1.03016 0.611042C0.939675 0.66595 0.865879 0.744496 0.816715 0.838225C0.76755 0.931954 0.744878 1.03732 0.751141 1.14297C0.757404 1.24863 0.792362 1.35058 0.852255 1.43784L6.0792 8.98788C6.29583 9.30092 6.81737 9.30092 7.03457 8.98788L12.2615 1.43784C12.322 1.35076 12.3575 1.24876 12.3641 1.14293C12.3707 1.0371 12.3482 0.931479 12.299 0.837551C12.2498 0.743623 12.1758 0.664976 12.085 0.610157C11.9942 0.555338 11.8902 0.526443 11.7841 0.526609Z" fill="#2254A5"/>
</svg>
