<svg width="9" height="9" viewBox="0 0 9 9" fill="none" xmlns="http://www.w3.org/2000/svg">
<path d="M1.25394 8.54107C1.01702 8.54107 0.819366 8.46187 0.660966 8.30347C0.502566 8.14507 0.423194 7.94724 0.422852 7.70999V1.14359C0.422852 0.906671 0.502223 0.709014 0.660966 0.550614C0.819709 0.392214 1.01737 0.312843 1.25394 0.3125H7.82085C8.05742 0.3125 8.25508 0.391871 8.41382 0.550614C8.57257 0.709357 8.65177 0.907014 8.65142 1.14359V7.7105C8.65142 7.94707 8.57222 8.14473 8.41382 8.30347C8.25542 8.46221 8.05759 8.54141 7.82034 8.54107H1.25394ZM1.25394 8.02679H7.82085C7.89971 8.02679 7.97222 7.99387 8.03839 7.92804C8.10457 7.86221 8.13748 7.78953 8.13714 7.70999V1.14359C8.13714 1.06439 8.10422 0.9917 8.03839 0.925528C7.97257 0.859357 7.89988 0.826443 7.82034 0.826786H1.25394C1.17474 0.826786 1.10205 0.8597 1.03588 0.925528C0.969709 0.991357 0.936794 1.06404 0.937137 1.14359V7.7105C0.937137 7.78936 0.970051 7.86187 1.03588 7.92804C1.10171 7.99421 1.17422 8.02713 1.25342 8.02679" fill="#696969"/>
<rect x="6.86719" y="4.14551" width="0.5625" height="4.66071" transform="rotate(90 6.86719 4.14551)" fill="#696969"/>
</svg>
