<svg width="23" height="22" viewBox="0 0 23 22" fill="none" xmlns="http://www.w3.org/2000/svg">
<path d="M21.3747 12.3021C21.1387 14.1017 20.4173 15.803 19.2879 17.2238C18.1584 18.6445 16.6635 19.731 14.9635 20.3667C13.2635 21.0024 11.4226 21.1633 9.63805 20.8322C7.85353 20.5012 6.19279 19.6906 4.83394 18.4874C3.4751 17.2842 2.4694 15.7339 1.92471 14.0025C1.38003 12.2712 1.3169 10.4243 1.74211 8.65986C2.16731 6.8954 3.0648 5.27997 4.33833 3.98682C5.61185 2.69367 7.21337 1.77158 8.97112 1.31944C13.8438 0.069709 18.8878 2.57792 20.7499 7.25193" stroke="#2254A5" stroke-width="2" stroke-linecap="round" stroke-linejoin="round"/>
<path d="M21.4586 1.0033V7.25196H15.21" stroke="#2254A5" stroke-width="2" stroke-linecap="round" stroke-linejoin="round"/>
</svg>
