<svg width="35" height="29" viewBox="0 0 35 29" fill="none" xmlns="http://www.w3.org/2000/svg">
<path d="M1.54102 1.68896H33.166" stroke="#2254A5" stroke-width="3" stroke-linecap="round"/>
<path fill-rule="evenodd" clip-rule="evenodd" d="M29.6519 1.68896H5.05469V22.4209C5.05469 24.3887 5.05469 25.3726 5.4377 26.1245C5.77458 26.7857 6.31212 27.3232 6.97327 27.6601C7.72524 28.0431 8.70913 28.0431 10.6769 28.0431H24.0297C25.9975 28.0431 26.9814 28.0431 27.7333 27.6601C28.3945 27.3232 28.932 26.7857 29.2689 26.1245C29.6519 25.3726 29.6519 24.3887 29.6519 22.4209V1.68896ZM15.5964 21.0154V14.7149L13.3246 16.9867C12.9933 17.3067 12.5495 17.4838 12.0888 17.4798C11.6281 17.4758 11.1875 17.291 10.8617 16.9653C10.536 16.6395 10.3512 16.1989 10.3472 15.7382C10.3432 15.2775 10.5203 14.8337 10.8403 14.5024L15.9249 9.41776C15.9565 9.38614 15.9899 9.3551 16.025 9.32464C16.1897 9.13364 16.3935 8.98038 16.6227 8.87532C16.852 8.77027 17.1011 8.71589 17.3533 8.71589C17.6054 8.71589 17.8546 8.77027 18.0839 8.87532C18.3131 8.98038 18.5169 9.13364 18.6815 9.32464C18.7167 9.3551 18.7501 9.38614 18.7817 9.41776L23.8663 14.5024C24.1863 14.8337 24.3634 15.2775 24.3594 15.7382C24.3554 16.1989 24.1706 16.6395 23.8449 16.9653C23.5191 17.291 23.0785 17.4758 22.6178 17.4798C22.1571 17.4838 21.7133 17.3067 21.382 16.9867L19.1102 14.7149V21.0154C19.1102 21.4813 18.9251 21.9282 18.5956 22.2577C18.2662 22.5872 17.8193 22.7723 17.3533 22.7723C16.8873 22.7723 16.4404 22.5872 16.111 22.2577C15.7815 21.9282 15.5964 21.4813 15.5964 21.0154Z" fill="#2254A5"/>
</svg>
