<svg width="36" height="29" viewBox="0 0 36 29" fill="none" xmlns="http://www.w3.org/2000/svg">
<path d="M2.09277 2.16797H33.7178" stroke="#6983C6" stroke-width="3" stroke-linecap="round"/>
<path fill-rule="evenodd" clip-rule="evenodd" d="M30.2037 2.16797H5.60645V22.8999C5.60645 24.8677 5.60645 25.8516 5.98946 26.6036C6.32634 27.2647 6.86388 27.8022 7.52503 28.1391C8.277 28.5221 9.26089 28.5221 11.2287 28.5221H24.5814C26.5492 28.5221 27.5331 28.5221 28.2851 28.1391C28.9462 27.8022 29.4838 27.2647 29.8207 26.6036C30.2037 25.8516 30.2037 24.8677 30.2037 22.8999V2.16797ZM16.1481 21.4944V15.194L13.8764 17.4657C13.545 17.7857 13.1012 17.9628 12.6405 17.9588C12.1799 17.9548 11.7392 17.77 11.4135 17.4443C11.0877 17.1185 10.9029 16.6779 10.8989 16.2172C10.8949 15.7565 11.072 15.3127 11.3921 14.9814L16.4767 9.89677C16.5083 9.86514 16.5417 9.8341 16.5768 9.80365C16.7414 9.61264 16.9453 9.45938 17.1745 9.35433C17.4037 9.24927 17.6529 9.19489 17.9051 9.19489C18.1572 9.19489 18.4064 9.24927 18.6356 9.35433C18.8648 9.45938 19.0687 9.61264 19.2333 9.80365C19.2684 9.8341 19.3018 9.86514 19.3335 9.89677L24.418 14.9814C24.7381 15.3127 24.9152 15.7565 24.9112 16.2172C24.9072 16.6779 24.7224 17.1185 24.3966 17.4443C24.0709 17.77 23.6302 17.9548 23.1696 17.9588C22.7089 17.9628 22.2651 17.7857 21.9337 17.4657L19.662 15.194V21.4944C19.662 21.9603 19.4769 22.4072 19.1474 22.7367C18.8179 23.0662 18.371 23.2513 17.9051 23.2513C17.4391 23.2513 16.9922 23.0662 16.6627 22.7367C16.3332 22.4072 16.1481 21.9603 16.1481 21.4944Z" fill="#6983C6"/>
</svg>
