<svg width="19" height="20" viewBox="0 0 19 20" fill="none" xmlns="http://www.w3.org/2000/svg">
<path d="M12.7393 0.189087C13.0045 0.189087 13.2588 0.30473 13.4464 0.510577C13.6339 0.716423 13.7393 0.995611 13.7393 1.28672V5.67726C13.7393 5.96837 13.6339 6.24756 13.4464 6.45341C13.2588 6.65926 13.0045 6.7749 12.7393 6.7749H10.7393V8.97017H14.7393C15.0045 8.97017 15.2588 9.08581 15.4464 9.29166C15.6339 9.49751 15.7393 9.77669 15.7393 10.0678V13.3607H17.7393C18.0045 13.3607 18.2588 13.4764 18.4464 13.6822C18.6339 13.888 18.7393 14.1672 18.7393 14.4583V18.8489C18.7393 19.14 18.6339 19.4192 18.4464 19.625C18.2588 19.8309 18.0045 19.9465 17.7393 19.9465H11.7393C11.474 19.9465 11.2197 19.8309 11.0322 19.625C10.8446 19.4192 10.7393 19.14 10.7393 18.8489V14.4583C10.7393 14.1672 10.8446 13.888 11.0322 13.6822C11.2197 13.4764 11.474 13.3607 11.7393 13.3607H13.7393V11.1654H5.73926V13.3607H7.73926C8.00447 13.3607 8.25883 13.4764 8.44636 13.6822C8.6339 13.888 8.73926 14.1672 8.73926 14.4583V18.8489C8.73926 19.14 8.6339 19.4192 8.44636 19.625C8.25883 19.8309 8.00447 19.9465 7.73926 19.9465H1.73926C1.47404 19.9465 1.21969 19.8309 1.03215 19.625C0.844615 19.4192 0.739258 19.14 0.739258 18.8489V14.4583C0.739258 14.1672 0.844615 13.888 1.03215 13.6822C1.21969 13.4764 1.47404 13.3607 1.73926 13.3607H3.73926V10.0678C3.73926 9.77669 3.84461 9.49751 4.03215 9.29166C4.21969 9.08581 4.47404 8.97017 4.73926 8.97017H8.73926V6.7749H6.73926C6.47404 6.7749 6.21969 6.65926 6.03215 6.45341C5.84461 6.24756 5.73926 5.96837 5.73926 5.67726V1.28672C5.73926 0.995611 5.84461 0.716423 6.03215 0.510577C6.21969 0.30473 6.47404 0.189087 6.73926 0.189087H12.7393ZM6.73926 15.556H2.73926V17.7513H6.73926V15.556ZM16.7393 15.556H12.7393V17.7513H16.7393V15.556ZM11.7393 2.38436H7.73926V4.57963H11.7393V2.38436Z" fill="#0D99FF"/>
</svg>
