<svg width="33" height="28" viewBox="0 0 33 28" fill="none" xmlns="http://www.w3.org/2000/svg">
<path d="M1.54102 1.68896H30.941M16.241 19.6556V9.85563M4.80768 1.68896H27.6743V20.9623C27.6743 22.7916 27.6743 23.7063 27.3183 24.4054C27.0051 25.02 26.5054 25.5197 25.8908 25.8329C25.1917 26.189 24.277 26.189 22.4477 26.189H10.0343C8.20502 26.189 7.29035 26.189 6.59128 25.8329C5.97665 25.5197 5.47693 25.02 5.16375 24.4054C4.80768 23.7063 4.80768 22.7916 4.80768 20.9623V1.68896Z" stroke="#6D94D5" stroke-width="3" stroke-linecap="round"/>
<path d="M11.3408 14.7555L16.0677 10.0287C16.1136 9.9828 16.1759 9.95703 16.2408 9.95703C16.3057 9.95703 16.368 9.9828 16.414 10.0287L21.1408 14.7555" stroke="#6D94D5" stroke-width="3" stroke-linecap="round"/>
</svg>
