<svg width="33" height="29" viewBox="0 0 33 29" fill="none" xmlns="http://www.w3.org/2000/svg">
<path d="M2.09375 2.16797H31.4937M16.7937 20.1346V10.3346M5.36042 2.16797H28.2271V21.4413C28.2271 23.2706 28.2271 24.1853 27.871 24.8844C27.5578 25.499 27.0581 25.9987 26.4435 26.3119C25.7444 26.668 24.8298 26.668 23.0004 26.668H10.5871C8.75775 26.668 7.84308 26.668 7.14402 26.3119C6.52938 25.9987 6.02966 25.499 5.71648 24.8844C5.36042 24.1853 5.36042 23.2706 5.36042 21.4413V2.16797Z" stroke="#2254A5" stroke-width="3" stroke-linecap="round"/>
<path d="M11.8945 15.2346L16.6214 10.5077C16.6673 10.4618 16.7296 10.436 16.7945 10.436C16.8595 10.436 16.9217 10.4618 16.9677 10.5077L21.6945 15.2346" stroke="#2254A5" stroke-width="3" stroke-linecap="round"/>
</svg>
