<svg width="10" height="9" viewBox="0 0 10 9" fill="none" xmlns="http://www.w3.org/2000/svg">
<path d="M4.84445 6.45054H5.35873V4.3934H7.41588V3.87912H5.35873V1.82197H4.84445V3.87912H2.7873V4.3934H4.84445V6.45054ZM1.81839 8.25054C1.58148 8.25054 1.38382 8.17134 1.22542 8.01294C1.06702 7.85454 0.987648 7.65672 0.987305 7.41946V0.853058C0.987305 0.616144 1.06668 0.418487 1.22542 0.260087C1.38416 0.101687 1.58182 0.0223155 1.81839 0.0219727H8.3853C8.62188 0.0219727 8.81953 0.101344 8.97828 0.260087C9.13702 0.41883 9.21622 0.616487 9.21588 0.853058V7.41997C9.21588 7.65654 9.13668 7.8542 8.97828 8.01294C8.81988 8.17169 8.62205 8.25089 8.38479 8.25054H1.81839ZM1.81839 7.73626H8.3853C8.46416 7.73626 8.53668 7.70334 8.60285 7.63752C8.66902 7.57169 8.70193 7.499 8.70159 7.41946V0.853058C8.70159 0.773858 8.66868 0.701173 8.60285 0.635001C8.53702 0.56883 8.46433 0.535915 8.38479 0.536258H1.81839C1.73919 0.536258 1.6665 0.569173 1.60033 0.635001C1.53416 0.70083 1.50125 0.773516 1.50159 0.853058V7.41997C1.50159 7.49883 1.5345 7.57134 1.60033 7.63752C1.66616 7.70369 1.73868 7.7366 1.81788 7.73626" fill="#696969"/>
</svg>
