<svg width="9" height="10" viewBox="0 0 9 10" fill="none" xmlns="http://www.w3.org/2000/svg">
<path d="M1.53909 9.1148C1.30218 9.1148 1.10452 9.0356 0.946122 8.8772C0.787722 8.7188 0.708351 8.52097 0.708008 8.28372V1.71732C0.708008 1.4804 0.787379 1.28274 0.946122 1.12434C1.10486 0.965945 1.30252 0.886573 1.53909 0.88623H8.10601C8.34258 0.88623 8.54024 0.965602 8.69898 1.12434C8.85772 1.28309 8.93692 1.48074 8.93658 1.71732V8.28423C8.93658 8.5208 8.85738 8.71846 8.69898 8.8772C8.54058 9.03594 8.34275 9.11514 8.10549 9.1148H1.53909ZM1.53909 8.60052H8.10601C8.18486 8.60052 8.25738 8.5676 8.32355 8.50177C8.38972 8.43594 8.42264 8.36326 8.42229 8.28372V1.71732C8.42229 1.63812 8.38938 1.56543 8.32355 1.49926C8.25772 1.43309 8.18504 1.40017 8.10549 1.40052H1.53909C1.45989 1.40052 1.38721 1.43343 1.32104 1.49926C1.25486 1.56509 1.22195 1.63777 1.22229 1.71732V8.28423C1.22229 8.36309 1.25521 8.4356 1.32104 8.50177C1.38686 8.56794 1.45938 8.60086 1.53858 8.60052" fill="#696969"/>
<rect x="7.15234" y="4.71924" width="0.5625" height="4.66071" transform="rotate(90 7.15234 4.71924)" fill="#696969"/>
</svg>
